M48
; DRILL file {KiCad (5.1.4)-1} date 7/28/2021 1:43:44 PM
; FORMAT={-:-/ absolute / inch / decimal}
; #@! TF.CreationDate,2021-07-28T13:43:44-07:00
; #@! TF.GenerationSoftware,Kicad,Pcbnew,(5.1.4)-1
; #@! TF.FileFunction,NonPlated,1,2,NPTH
FMAT,2
INCH
T1C0.0669
T2C0.1339
%
G90
G05
T1
X1.0433Y-2.2244
X1.4764Y-2.2244
X2.815Y-1.5551
X3.248Y-1.5551
X6.3583Y-0.8858
X6.7913Y-0.8858
X2.1063Y-0.8858
X2.5394Y-0.8858
X6.7126Y-2.2244
X7.1457Y-2.2244
X0.689Y-1.5551
X1.122Y-1.5551
X4.2323Y-2.8937
X4.6654Y-2.8937
X6.0039Y-2.2244
X6.437Y-2.2244
X5.2953Y-2.2244
X5.7283Y-2.2244
X3.5236Y-0.8858
X3.9567Y-0.8858
X3.5236Y-1.5551
X3.9567Y-1.5551
X1.3976Y-0.8858
X1.8307Y-0.8858
X4.5866Y-2.2244
X5.0197Y-2.2244
X4.9409Y-1.5551
X5.374Y-1.5551
X4.2323Y-1.5551
X4.6654Y-1.5551
X6.3583Y-1.5551
X6.7913Y-1.5551
X2.1063Y-1.5551
X2.5394Y-1.5551
X5.6496Y-1.5551
X6.0827Y-1.5551
X3.5236Y-2.8937
X3.9567Y-2.8937
X4.2323Y-0.8858
X4.6654Y-0.8858
X2.4606Y-2.2244
X2.8937Y-2.2244
X2.815Y-0.8858
X3.248Y-0.8858
X4.9409Y-0.8858
X5.374Y-0.8858
X5.6496Y-0.8858
X6.0827Y-0.8858
X1.3976Y-1.5551
X1.8307Y-1.5551
X7.0669Y-0.8858
X7.5Y-0.8858
X3.878Y-2.2244
X4.311Y-2.2244
X7.0669Y-1.5551
X7.5Y-1.5551
X0.689Y-0.8858
X1.122Y-0.8858
X3.1693Y-2.2244
X3.6024Y-2.2244
X1.752Y-2.2244
X2.185Y-2.2244
T2
X3.7402Y-1.5551
X1.6142Y-0.8858
X4.8031Y-2.2244
X5.1575Y-1.5551
X4.4488Y-1.5551
X6.5748Y-1.5551
X2.3228Y-1.5551
X5.8661Y-1.5551
X3.7402Y-2.8937
X4.4488Y-0.8858
X2.6772Y-2.2244
X3.0315Y-0.8858
X5.1575Y-0.8858
X5.8661Y-0.8858
X1.6142Y-1.5551
X7.2835Y-0.8858
X4.0945Y-2.2244
X7.2835Y-1.5551
X0.9055Y-0.8858
X3.3858Y-2.2244
X1.9685Y-2.2244
X1.2598Y-2.2244
X3.0315Y-1.5551
X6.5748Y-0.8858
X2.3228Y-0.8858
X6.9291Y-2.2244
X0.9055Y-1.5551
X4.4488Y-2.8937
X6.2205Y-2.2244
X5.5118Y-2.2244
X3.7402Y-0.8858
T0
M30
