G04 #@! TF.GenerationSoftware,KiCad,Pcbnew,(5.1.4)-1*
G04 #@! TF.CreationDate,2021-07-28T13:43:45-07:00*
G04 #@! TF.ProjectId,pcbtesting,70636274-6573-4746-996e-672e6b696361,rev?*
G04 #@! TF.SameCoordinates,Original*
G04 #@! TF.FileFunction,Legend,Top*
G04 #@! TF.FilePolarity,Positive*
%FSLAX46Y46*%
G04 Gerber Fmt 4.6, Leading zero omitted, Abs format (unit mm)*
G04 Created by KiCad (PCBNEW (5.1.4)-1) date 2021-07-28 13:43:45*
%MOMM*%
%LPD*%
G04 APERTURE LIST*
%ADD10C,0.300000*%
%ADD11C,0.250000*%
%ADD12C,0.100000*%
%ADD13C,0.381000*%
%ADD14C,0.020000*%
%ADD15C,0.150000*%
%ADD16R,1.854600X1.854600*%
%ADD17C,1.854600*%
%ADD18C,2.102000*%
%ADD19C,1.802000*%
%ADD20C,3.502000*%
%ADD21R,1.702000X1.702000*%
%ADD22C,1.702000*%
%ADD23R,1.702000X1.302000*%
%ADD24R,1.302000X1.702000*%
G04 APERTURE END LIST*
D10*
X29871428Y-78578571D02*
X29871428Y-79650000D01*
X29800000Y-79864285D01*
X29657142Y-80007142D01*
X29442857Y-80078571D01*
X29300000Y-80078571D01*
X31300000Y-80078571D02*
X30585714Y-80078571D01*
X30585714Y-78578571D01*
X32657142Y-79935714D02*
X32585714Y-80007142D01*
X32371428Y-80078571D01*
X32228571Y-80078571D01*
X32014285Y-80007142D01*
X31871428Y-79864285D01*
X31800000Y-79721428D01*
X31728571Y-79435714D01*
X31728571Y-79221428D01*
X31800000Y-78935714D01*
X31871428Y-78792857D01*
X32014285Y-78650000D01*
X32228571Y-78578571D01*
X32371428Y-78578571D01*
X32585714Y-78650000D01*
X32657142Y-78721428D01*
X33728571Y-78578571D02*
X33728571Y-79650000D01*
X33657142Y-79864285D01*
X33514285Y-80007142D01*
X33300000Y-80078571D01*
X33157142Y-80078571D01*
X35157142Y-80078571D02*
X34442857Y-80078571D01*
X34442857Y-78578571D01*
X36514285Y-79935714D02*
X36442857Y-80007142D01*
X36228571Y-80078571D01*
X36085714Y-80078571D01*
X35871428Y-80007142D01*
X35728571Y-79864285D01*
X35657142Y-79721428D01*
X35585714Y-79435714D01*
X35585714Y-79221428D01*
X35657142Y-78935714D01*
X35728571Y-78792857D01*
X35871428Y-78650000D01*
X36085714Y-78578571D01*
X36228571Y-78578571D01*
X36442857Y-78650000D01*
X36514285Y-78721428D01*
X37585714Y-78578571D02*
X37585714Y-79650000D01*
X37514285Y-79864285D01*
X37371428Y-80007142D01*
X37157142Y-80078571D01*
X37014285Y-80078571D01*
X39014285Y-80078571D02*
X38300000Y-80078571D01*
X38300000Y-78578571D01*
X40371428Y-79935714D02*
X40300000Y-80007142D01*
X40085714Y-80078571D01*
X39942857Y-80078571D01*
X39728571Y-80007142D01*
X39585714Y-79864285D01*
X39514285Y-79721428D01*
X39442857Y-79435714D01*
X39442857Y-79221428D01*
X39514285Y-78935714D01*
X39585714Y-78792857D01*
X39728571Y-78650000D01*
X39942857Y-78578571D01*
X40085714Y-78578571D01*
X40300000Y-78650000D01*
X40371428Y-78721428D01*
X41442857Y-78578571D02*
X41442857Y-79650000D01*
X41371428Y-79864285D01*
X41228571Y-80007142D01*
X41014285Y-80078571D01*
X40871428Y-80078571D01*
X42871428Y-80078571D02*
X42157142Y-80078571D01*
X42157142Y-78578571D01*
X44228571Y-79935714D02*
X44157142Y-80007142D01*
X43942857Y-80078571D01*
X43800000Y-80078571D01*
X43585714Y-80007142D01*
X43442857Y-79864285D01*
X43371428Y-79721428D01*
X43300000Y-79435714D01*
X43300000Y-79221428D01*
X43371428Y-78935714D01*
X43442857Y-78792857D01*
X43585714Y-78650000D01*
X43800000Y-78578571D01*
X43942857Y-78578571D01*
X44157142Y-78650000D01*
X44228571Y-78721428D01*
X29614285Y-70128571D02*
X29614285Y-68628571D01*
X29614285Y-70057142D02*
X29471428Y-70128571D01*
X29185714Y-70128571D01*
X29042857Y-70057142D01*
X28971428Y-69985714D01*
X28900000Y-69842857D01*
X28900000Y-69414285D01*
X28971428Y-69271428D01*
X29042857Y-69200000D01*
X29185714Y-69128571D01*
X29471428Y-69128571D01*
X29614285Y-69200000D01*
X30971428Y-70128571D02*
X30971428Y-69342857D01*
X30900000Y-69200000D01*
X30757142Y-69128571D01*
X30471428Y-69128571D01*
X30328571Y-69200000D01*
X30971428Y-70057142D02*
X30828571Y-70128571D01*
X30471428Y-70128571D01*
X30328571Y-70057142D01*
X30257142Y-69914285D01*
X30257142Y-69771428D01*
X30328571Y-69628571D01*
X30471428Y-69557142D01*
X30828571Y-69557142D01*
X30971428Y-69485714D01*
X32328571Y-70057142D02*
X32185714Y-70128571D01*
X31900000Y-70128571D01*
X31757142Y-70057142D01*
X31685714Y-69985714D01*
X31614285Y-69842857D01*
X31614285Y-69414285D01*
X31685714Y-69271428D01*
X31757142Y-69200000D01*
X31900000Y-69128571D01*
X32185714Y-69128571D01*
X32328571Y-69200000D01*
X32971428Y-70128571D02*
X32971428Y-68628571D01*
X33114285Y-69557142D02*
X33542857Y-70128571D01*
X33542857Y-69128571D02*
X32971428Y-69700000D01*
X34114285Y-69128571D02*
X35185714Y-69128571D01*
X34542857Y-68485714D02*
X34114285Y-70414285D01*
X35042857Y-69771428D02*
X33971428Y-69771428D01*
X34614285Y-70414285D02*
X35042857Y-68485714D01*
X35900000Y-69271428D02*
X35757142Y-69200000D01*
X35685714Y-69128571D01*
X35614285Y-68985714D01*
X35614285Y-68914285D01*
X35685714Y-68771428D01*
X35757142Y-68700000D01*
X35900000Y-68628571D01*
X36185714Y-68628571D01*
X36328571Y-68700000D01*
X36400000Y-68771428D01*
X36471428Y-68914285D01*
X36471428Y-68985714D01*
X36400000Y-69128571D01*
X36328571Y-69200000D01*
X36185714Y-69271428D01*
X35900000Y-69271428D01*
X35757142Y-69342857D01*
X35685714Y-69414285D01*
X35614285Y-69557142D01*
X35614285Y-69842857D01*
X35685714Y-69985714D01*
X35757142Y-70057142D01*
X35900000Y-70128571D01*
X36185714Y-70128571D01*
X36328571Y-70057142D01*
X36400000Y-69985714D01*
X36471428Y-69842857D01*
X36471428Y-69557142D01*
X36400000Y-69414285D01*
X36328571Y-69342857D01*
X36185714Y-69271428D01*
X37757142Y-69128571D02*
X37757142Y-70128571D01*
X37400000Y-68557142D02*
X37042857Y-69628571D01*
X37971428Y-69628571D01*
X38757142Y-69271428D02*
X38614285Y-69200000D01*
X38542857Y-69128571D01*
X38471428Y-68985714D01*
X38471428Y-68914285D01*
X38542857Y-68771428D01*
X38614285Y-68700000D01*
X38757142Y-68628571D01*
X39042857Y-68628571D01*
X39185714Y-68700000D01*
X39257142Y-68771428D01*
X39328571Y-68914285D01*
X39328571Y-68985714D01*
X39257142Y-69128571D01*
X39185714Y-69200000D01*
X39042857Y-69271428D01*
X38757142Y-69271428D01*
X38614285Y-69342857D01*
X38542857Y-69414285D01*
X38471428Y-69557142D01*
X38471428Y-69842857D01*
X38542857Y-69985714D01*
X38614285Y-70057142D01*
X38757142Y-70128571D01*
X39042857Y-70128571D01*
X39185714Y-70057142D01*
X39257142Y-69985714D01*
X39328571Y-69842857D01*
X39328571Y-69557142D01*
X39257142Y-69414285D01*
X39185714Y-69342857D01*
X39042857Y-69271428D01*
X40614285Y-69128571D02*
X40614285Y-70128571D01*
X40257142Y-68557142D02*
X39900000Y-69628571D01*
X40828571Y-69628571D01*
X42542857Y-70128571D02*
X42542857Y-69128571D01*
X42542857Y-69271428D02*
X42614285Y-69200000D01*
X42757142Y-69128571D01*
X42971428Y-69128571D01*
X43114285Y-69200000D01*
X43185714Y-69342857D01*
X43185714Y-70128571D01*
X43185714Y-69342857D02*
X43257142Y-69200000D01*
X43400000Y-69128571D01*
X43614285Y-69128571D01*
X43757142Y-69200000D01*
X43828571Y-69342857D01*
X43828571Y-70128571D01*
X45185714Y-70128571D02*
X45185714Y-69342857D01*
X45114285Y-69200000D01*
X44971428Y-69128571D01*
X44685714Y-69128571D01*
X44542857Y-69200000D01*
X45185714Y-70057142D02*
X45042857Y-70128571D01*
X44685714Y-70128571D01*
X44542857Y-70057142D01*
X44471428Y-69914285D01*
X44471428Y-69771428D01*
X44542857Y-69628571D01*
X44685714Y-69557142D01*
X45042857Y-69557142D01*
X45185714Y-69485714D01*
X46542857Y-70128571D02*
X46542857Y-68628571D01*
X46542857Y-70057142D02*
X46400000Y-70128571D01*
X46114285Y-70128571D01*
X45971428Y-70057142D01*
X45900000Y-69985714D01*
X45828571Y-69842857D01*
X45828571Y-69414285D01*
X45900000Y-69271428D01*
X45971428Y-69200000D01*
X46114285Y-69128571D01*
X46400000Y-69128571D01*
X46542857Y-69200000D01*
X47828571Y-70057142D02*
X47685714Y-70128571D01*
X47400000Y-70128571D01*
X47257142Y-70057142D01*
X47185714Y-69914285D01*
X47185714Y-69342857D01*
X47257142Y-69200000D01*
X47400000Y-69128571D01*
X47685714Y-69128571D01*
X47828571Y-69200000D01*
X47900000Y-69342857D01*
X47900000Y-69485714D01*
X47185714Y-69628571D01*
X30900000Y-71678571D02*
X31471428Y-71678571D01*
X31114285Y-71178571D02*
X31114285Y-72464285D01*
X31185714Y-72607142D01*
X31328571Y-72678571D01*
X31471428Y-72678571D01*
X31971428Y-72678571D02*
X31971428Y-71178571D01*
X32614285Y-72678571D02*
X32614285Y-71892857D01*
X32542857Y-71750000D01*
X32400000Y-71678571D01*
X32185714Y-71678571D01*
X32042857Y-71750000D01*
X31971428Y-71821428D01*
X33328571Y-72678571D02*
X33328571Y-71678571D01*
X33328571Y-71178571D02*
X33257142Y-71250000D01*
X33328571Y-71321428D01*
X33400000Y-71250000D01*
X33328571Y-71178571D01*
X33328571Y-71321428D01*
X33971428Y-72607142D02*
X34114285Y-72678571D01*
X34400000Y-72678571D01*
X34542857Y-72607142D01*
X34614285Y-72464285D01*
X34614285Y-72392857D01*
X34542857Y-72250000D01*
X34400000Y-72178571D01*
X34185714Y-72178571D01*
X34042857Y-72107142D01*
X33971428Y-71964285D01*
X33971428Y-71892857D01*
X34042857Y-71750000D01*
X34185714Y-71678571D01*
X34400000Y-71678571D01*
X34542857Y-71750000D01*
X36400000Y-72678571D02*
X36400000Y-71178571D01*
X36542857Y-72107142D02*
X36971428Y-72678571D01*
X36971428Y-71678571D02*
X36400000Y-72250000D01*
X38185714Y-72607142D02*
X38042857Y-72678571D01*
X37757142Y-72678571D01*
X37614285Y-72607142D01*
X37542857Y-72464285D01*
X37542857Y-71892857D01*
X37614285Y-71750000D01*
X37757142Y-71678571D01*
X38042857Y-71678571D01*
X38185714Y-71750000D01*
X38257142Y-71892857D01*
X38257142Y-72035714D01*
X37542857Y-72178571D01*
X38757142Y-71678571D02*
X39114285Y-72678571D01*
X39471428Y-71678571D02*
X39114285Y-72678571D01*
X38971428Y-73035714D01*
X38900000Y-73107142D01*
X38757142Y-73178571D01*
X40042857Y-72678571D02*
X40042857Y-71178571D01*
X40042857Y-71750000D02*
X40185714Y-71678571D01*
X40471428Y-71678571D01*
X40614285Y-71750000D01*
X40685714Y-71821428D01*
X40757142Y-71964285D01*
X40757142Y-72392857D01*
X40685714Y-72535714D01*
X40614285Y-72607142D01*
X40471428Y-72678571D01*
X40185714Y-72678571D01*
X40042857Y-72607142D01*
X41614285Y-72678571D02*
X41471428Y-72607142D01*
X41400000Y-72535714D01*
X41328571Y-72392857D01*
X41328571Y-71964285D01*
X41400000Y-71821428D01*
X41471428Y-71750000D01*
X41614285Y-71678571D01*
X41828571Y-71678571D01*
X41971428Y-71750000D01*
X42042857Y-71821428D01*
X42114285Y-71964285D01*
X42114285Y-72392857D01*
X42042857Y-72535714D01*
X41971428Y-72607142D01*
X41828571Y-72678571D01*
X41614285Y-72678571D01*
X43400000Y-72678571D02*
X43400000Y-71892857D01*
X43328571Y-71750000D01*
X43185714Y-71678571D01*
X42900000Y-71678571D01*
X42757142Y-71750000D01*
X43400000Y-72607142D02*
X43257142Y-72678571D01*
X42900000Y-72678571D01*
X42757142Y-72607142D01*
X42685714Y-72464285D01*
X42685714Y-72321428D01*
X42757142Y-72178571D01*
X42900000Y-72107142D01*
X43257142Y-72107142D01*
X43400000Y-72035714D01*
X44114285Y-72678571D02*
X44114285Y-71678571D01*
X44114285Y-71964285D02*
X44185714Y-71821428D01*
X44257142Y-71750000D01*
X44400000Y-71678571D01*
X44542857Y-71678571D01*
X45685714Y-72678571D02*
X45685714Y-71178571D01*
X45685714Y-72607142D02*
X45542857Y-72678571D01*
X45257142Y-72678571D01*
X45114285Y-72607142D01*
X45042857Y-72535714D01*
X44971428Y-72392857D01*
X44971428Y-71964285D01*
X45042857Y-71821428D01*
X45114285Y-71750000D01*
X45257142Y-71678571D01*
X45542857Y-71678571D01*
X45685714Y-71750000D01*
X29078571Y-74228571D02*
X29649999Y-74228571D01*
X29292857Y-73728571D02*
X29292857Y-75014285D01*
X29364285Y-75157142D01*
X29507142Y-75228571D01*
X29649999Y-75228571D01*
X30149999Y-75228571D02*
X30149999Y-73728571D01*
X30792857Y-75228571D02*
X30792857Y-74442857D01*
X30721428Y-74300000D01*
X30578571Y-74228571D01*
X30364285Y-74228571D01*
X30221428Y-74300000D01*
X30149999Y-74371428D01*
X31507142Y-75228571D02*
X31507142Y-74228571D01*
X31507142Y-73728571D02*
X31435714Y-73800000D01*
X31507142Y-73871428D01*
X31578571Y-73800000D01*
X31507142Y-73728571D01*
X31507142Y-73871428D01*
X32149999Y-75157142D02*
X32292857Y-75228571D01*
X32578571Y-75228571D01*
X32721428Y-75157142D01*
X32792857Y-75014285D01*
X32792857Y-74942857D01*
X32721428Y-74800000D01*
X32578571Y-74728571D01*
X32364285Y-74728571D01*
X32221428Y-74657142D01*
X32149999Y-74514285D01*
X32149999Y-74442857D01*
X32221428Y-74300000D01*
X32364285Y-74228571D01*
X32578571Y-74228571D01*
X32721428Y-74300000D01*
X34578571Y-75228571D02*
X34578571Y-74228571D01*
X34578571Y-73728571D02*
X34507142Y-73800000D01*
X34578571Y-73871428D01*
X34650000Y-73800000D01*
X34578571Y-73728571D01*
X34578571Y-73871428D01*
X35221428Y-75157142D02*
X35364285Y-75228571D01*
X35650000Y-75228571D01*
X35792857Y-75157142D01*
X35864285Y-75014285D01*
X35864285Y-74942857D01*
X35792857Y-74800000D01*
X35650000Y-74728571D01*
X35435714Y-74728571D01*
X35292857Y-74657142D01*
X35221428Y-74514285D01*
X35221428Y-74442857D01*
X35292857Y-74300000D01*
X35435714Y-74228571D01*
X35650000Y-74228571D01*
X35792857Y-74300000D01*
X37507142Y-74228571D02*
X37864285Y-75228571D01*
X38221428Y-74228571D01*
X39364285Y-75157142D02*
X39221428Y-75228571D01*
X38935714Y-75228571D01*
X38792857Y-75157142D01*
X38721428Y-75014285D01*
X38721428Y-74442857D01*
X38792857Y-74300000D01*
X38935714Y-74228571D01*
X39221428Y-74228571D01*
X39364285Y-74300000D01*
X39435714Y-74442857D01*
X39435714Y-74585714D01*
X38721428Y-74728571D01*
X40078571Y-75228571D02*
X40078571Y-74228571D01*
X40078571Y-74514285D02*
X40150000Y-74371428D01*
X40221428Y-74300000D01*
X40364285Y-74228571D01*
X40507142Y-74228571D01*
X40935714Y-75157142D02*
X41078571Y-75228571D01*
X41364285Y-75228571D01*
X41507142Y-75157142D01*
X41578571Y-75014285D01*
X41578571Y-74942857D01*
X41507142Y-74800000D01*
X41364285Y-74728571D01*
X41150000Y-74728571D01*
X41007142Y-74657142D01*
X40935714Y-74514285D01*
X40935714Y-74442857D01*
X41007142Y-74300000D01*
X41150000Y-74228571D01*
X41364285Y-74228571D01*
X41507142Y-74300000D01*
X42221428Y-75228571D02*
X42221428Y-74228571D01*
X42221428Y-73728571D02*
X42150000Y-73800000D01*
X42221428Y-73871428D01*
X42292857Y-73800000D01*
X42221428Y-73728571D01*
X42221428Y-73871428D01*
X43150000Y-75228571D02*
X43007142Y-75157142D01*
X42935714Y-75085714D01*
X42864285Y-74942857D01*
X42864285Y-74514285D01*
X42935714Y-74371428D01*
X43007142Y-74300000D01*
X43150000Y-74228571D01*
X43364285Y-74228571D01*
X43507142Y-74300000D01*
X43578571Y-74371428D01*
X43650000Y-74514285D01*
X43650000Y-74942857D01*
X43578571Y-75085714D01*
X43507142Y-75157142D01*
X43364285Y-75228571D01*
X43150000Y-75228571D01*
X44292857Y-74228571D02*
X44292857Y-75228571D01*
X44292857Y-74371428D02*
X44364285Y-74300000D01*
X44507142Y-74228571D01*
X44721428Y-74228571D01*
X44864285Y-74300000D01*
X44935714Y-74442857D01*
X44935714Y-75228571D01*
X46721428Y-73871428D02*
X46792857Y-73800000D01*
X46935714Y-73728571D01*
X47292857Y-73728571D01*
X47435714Y-73800000D01*
X47507142Y-73871428D01*
X47578571Y-74014285D01*
X47578571Y-74157142D01*
X47507142Y-74371428D01*
X46650000Y-75228571D01*
X47578571Y-75228571D01*
D11*
X172130952Y-77452380D02*
X172130952Y-76928571D01*
X172083333Y-76833333D01*
X171988095Y-76785714D01*
X171797619Y-76785714D01*
X171702380Y-76833333D01*
X172130952Y-77404761D02*
X172035714Y-77452380D01*
X171797619Y-77452380D01*
X171702380Y-77404761D01*
X171654761Y-77309523D01*
X171654761Y-77214285D01*
X171702380Y-77119047D01*
X171797619Y-77071428D01*
X172035714Y-77071428D01*
X172130952Y-77023809D01*
X173369047Y-77452380D02*
X173369047Y-76452380D01*
X173369047Y-76833333D02*
X173464285Y-76785714D01*
X173654761Y-76785714D01*
X173750000Y-76833333D01*
X173797619Y-76880952D01*
X173845238Y-76976190D01*
X173845238Y-77261904D01*
X173797619Y-77357142D01*
X173750000Y-77404761D01*
X173654761Y-77452380D01*
X173464285Y-77452380D01*
X173369047Y-77404761D01*
X174416666Y-77452380D02*
X174321428Y-77404761D01*
X174273809Y-77357142D01*
X174226190Y-77261904D01*
X174226190Y-76976190D01*
X174273809Y-76880952D01*
X174321428Y-76833333D01*
X174416666Y-76785714D01*
X174559523Y-76785714D01*
X174654761Y-76833333D01*
X174702380Y-76880952D01*
X174750000Y-76976190D01*
X174750000Y-77261904D01*
X174702380Y-77357142D01*
X174654761Y-77404761D01*
X174559523Y-77452380D01*
X174416666Y-77452380D01*
X175607142Y-77452380D02*
X175607142Y-76928571D01*
X175559523Y-76833333D01*
X175464285Y-76785714D01*
X175273809Y-76785714D01*
X175178571Y-76833333D01*
X175607142Y-77404761D02*
X175511904Y-77452380D01*
X175273809Y-77452380D01*
X175178571Y-77404761D01*
X175130952Y-77309523D01*
X175130952Y-77214285D01*
X175178571Y-77119047D01*
X175273809Y-77071428D01*
X175511904Y-77071428D01*
X175607142Y-77023809D01*
X176083333Y-77452380D02*
X176083333Y-76785714D01*
X176083333Y-76976190D02*
X176130952Y-76880952D01*
X176178571Y-76833333D01*
X176273809Y-76785714D01*
X176369047Y-76785714D01*
X177130952Y-77452380D02*
X177130952Y-76452380D01*
X177130952Y-77404761D02*
X177035714Y-77452380D01*
X176845238Y-77452380D01*
X176750000Y-77404761D01*
X176702380Y-77357142D01*
X176654761Y-77261904D01*
X176654761Y-76976190D01*
X176702380Y-76880952D01*
X176750000Y-76833333D01*
X176845238Y-76785714D01*
X177035714Y-76785714D01*
X177130952Y-76833333D01*
X178369047Y-77452380D02*
X178369047Y-76452380D01*
X178369047Y-76833333D02*
X178464285Y-76785714D01*
X178654761Y-76785714D01*
X178750000Y-76833333D01*
X178797619Y-76880952D01*
X178845238Y-76976190D01*
X178845238Y-77261904D01*
X178797619Y-77357142D01*
X178750000Y-77404761D01*
X178654761Y-77452380D01*
X178464285Y-77452380D01*
X178369047Y-77404761D01*
X179178571Y-76785714D02*
X179416666Y-77452380D01*
X179654761Y-76785714D02*
X179416666Y-77452380D01*
X179321428Y-77690476D01*
X179273809Y-77738095D01*
X179178571Y-77785714D01*
X181226190Y-77452380D02*
X181226190Y-76452380D01*
X181226190Y-77404761D02*
X181130952Y-77452380D01*
X180940476Y-77452380D01*
X180845238Y-77404761D01*
X180797619Y-77357142D01*
X180750000Y-77261904D01*
X180750000Y-76976190D01*
X180797619Y-76880952D01*
X180845238Y-76833333D01*
X180940476Y-76785714D01*
X181130952Y-76785714D01*
X181226190Y-76833333D01*
X182130952Y-77452380D02*
X182130952Y-76928571D01*
X182083333Y-76833333D01*
X181988095Y-76785714D01*
X181797619Y-76785714D01*
X181702380Y-76833333D01*
X182130952Y-77404761D02*
X182035714Y-77452380D01*
X181797619Y-77452380D01*
X181702380Y-77404761D01*
X181654761Y-77309523D01*
X181654761Y-77214285D01*
X181702380Y-77119047D01*
X181797619Y-77071428D01*
X182035714Y-77071428D01*
X182130952Y-77023809D01*
X183035714Y-77404761D02*
X182940476Y-77452380D01*
X182750000Y-77452380D01*
X182654761Y-77404761D01*
X182607142Y-77357142D01*
X182559523Y-77261904D01*
X182559523Y-76976190D01*
X182607142Y-76880952D01*
X182654761Y-76833333D01*
X182750000Y-76785714D01*
X182940476Y-76785714D01*
X183035714Y-76833333D01*
X183464285Y-77452380D02*
X183464285Y-76452380D01*
X183559523Y-77071428D02*
X183845238Y-77452380D01*
X183845238Y-76785714D02*
X183464285Y-77166666D01*
D12*
G36*
X194000000Y-48000000D02*
G01*
X176000000Y-48000000D01*
X176000000Y-14000000D01*
X194000000Y-14000000D01*
X194000000Y-48000000D01*
G37*
X194000000Y-48000000D02*
X176000000Y-48000000D01*
X176000000Y-14000000D01*
X194000000Y-14000000D01*
X194000000Y-48000000D01*
G36*
X158000000Y-48000000D02*
G01*
X140000000Y-48000000D01*
X140000000Y-14000000D01*
X158000000Y-14000000D01*
X158000000Y-48000000D01*
G37*
X158000000Y-48000000D02*
X140000000Y-48000000D01*
X140000000Y-14000000D01*
X158000000Y-14000000D01*
X158000000Y-48000000D01*
G36*
X122000000Y-48000000D02*
G01*
X104000000Y-48000000D01*
X104000000Y-14000000D01*
X122000000Y-14000000D01*
X122000000Y-48000000D01*
G37*
X122000000Y-48000000D02*
X104000000Y-48000000D01*
X104000000Y-14000000D01*
X122000000Y-14000000D01*
X122000000Y-48000000D01*
G36*
X68000000Y-48000000D02*
G01*
X50000000Y-48000000D01*
X50000000Y-14000000D01*
X68000000Y-14000000D01*
X68000000Y-48000000D01*
G37*
X68000000Y-48000000D02*
X50000000Y-48000000D01*
X50000000Y-14000000D01*
X68000000Y-14000000D01*
X68000000Y-48000000D01*
G36*
X32000000Y-48000000D02*
G01*
X14000000Y-48000000D01*
X14000000Y-14000000D01*
X32000000Y-14000000D01*
X32000000Y-48000000D01*
G37*
X32000000Y-48000000D02*
X14000000Y-48000000D01*
X14000000Y-14000000D01*
X32000000Y-14000000D01*
X32000000Y-48000000D01*
D13*
X23010000Y-65230000D02*
X23010000Y-83010000D01*
X23010000Y-83010000D02*
X53490000Y-83010000D01*
X53490000Y-83010000D02*
X53490000Y-65230000D01*
X53490000Y-65230000D02*
X23010000Y-65230000D01*
X23010000Y-80470000D02*
X25550000Y-80470000D01*
X25550000Y-80470000D02*
X25550000Y-83010000D01*
D14*
G36*
X140554505Y-67778521D02*
G01*
X140617497Y-68064821D01*
X140492974Y-68557324D01*
X140479560Y-68593796D01*
X140338835Y-69019907D01*
X140165771Y-69613274D01*
X139992776Y-70261544D01*
X139954963Y-70412429D01*
X139808333Y-71001745D01*
X139679823Y-71510452D01*
X139590833Y-71854096D01*
X139573134Y-71919209D01*
X139586167Y-72026091D01*
X139752545Y-71912519D01*
X139994173Y-71668079D01*
X140485497Y-71268046D01*
X140937995Y-71122486D01*
X141323987Y-71199083D01*
X141615793Y-71465518D01*
X141785732Y-71889477D01*
X141806123Y-72438642D01*
X141649287Y-73080698D01*
X141497458Y-73423139D01*
X140980631Y-74164047D01*
X140316017Y-74668219D01*
X139522492Y-74921736D01*
X139452542Y-74930946D01*
X139000376Y-74956840D01*
X138653207Y-74927592D01*
X138550118Y-74890692D01*
X138436597Y-74682492D01*
X138437732Y-74585334D01*
X139173364Y-74585334D01*
X139178588Y-74595129D01*
X139379811Y-74682243D01*
X139707859Y-74567440D01*
X140113116Y-74275166D01*
X140403890Y-73991406D01*
X140877727Y-73290536D01*
X141171265Y-72453780D01*
X141246328Y-71783912D01*
X141173171Y-71493461D01*
X140979049Y-71419474D01*
X140701988Y-71539470D01*
X140380011Y-71830966D01*
X140051142Y-72271483D01*
X139864990Y-72600613D01*
X139540051Y-73288649D01*
X139304944Y-73882263D01*
X139176954Y-74331232D01*
X139173364Y-74585334D01*
X138437732Y-74585334D01*
X138441480Y-74264656D01*
X138459182Y-74131615D01*
X138553156Y-73497740D01*
X138105825Y-74090924D01*
X137664003Y-74565800D01*
X137268574Y-74775450D01*
X136939287Y-74721139D01*
X136695893Y-74404129D01*
X136581378Y-73993441D01*
X136483318Y-73413030D01*
X136069678Y-74065272D01*
X135754368Y-74491070D01*
X135477091Y-74689223D01*
X135311692Y-74717514D01*
X134937234Y-74632865D01*
X134725645Y-74360526D01*
X134690012Y-74085071D01*
X135243754Y-74085071D01*
X135287215Y-74298113D01*
X135420955Y-74250706D01*
X135638753Y-73946621D01*
X135934386Y-73389630D01*
X136046981Y-73153081D01*
X136347276Y-72466178D01*
X136518317Y-71976827D01*
X136552980Y-71706633D01*
X136535530Y-71671349D01*
X136299335Y-71590747D01*
X136038244Y-71754605D01*
X135776737Y-72124659D01*
X135539291Y-72662643D01*
X135350385Y-73330291D01*
X135296796Y-73607808D01*
X135243754Y-74085071D01*
X134690012Y-74085071D01*
X134662567Y-73872913D01*
X134684891Y-73513367D01*
X134844298Y-72697530D01*
X135122601Y-72041792D01*
X135494168Y-71576640D01*
X135933370Y-71332560D01*
X136414574Y-71340039D01*
X136490698Y-71365460D01*
X136913867Y-71436340D01*
X137119462Y-71362303D01*
X137358270Y-71272091D01*
X137463687Y-71398276D01*
X137439104Y-71755832D01*
X137320007Y-72247595D01*
X137199171Y-72782073D01*
X137120173Y-73337150D01*
X137086846Y-73842250D01*
X137103026Y-74226795D01*
X137172548Y-74420210D01*
X137201400Y-74430508D01*
X137383582Y-74322486D01*
X137674103Y-74038226D01*
X138017901Y-73637439D01*
X138359912Y-73179838D01*
X138375346Y-73157457D01*
X138539815Y-72827428D01*
X138746149Y-72274954D01*
X138974789Y-71557943D01*
X139206174Y-70734305D01*
X139247838Y-70574406D01*
X139502270Y-69597613D01*
X139702224Y-68865781D01*
X139860152Y-68344778D01*
X139988505Y-68000473D01*
X140099732Y-67798733D01*
X140206286Y-67705426D01*
X140301538Y-67685876D01*
X140554505Y-67778521D01*
G37*
G36*
X134089633Y-67036063D02*
G01*
X134532601Y-67246863D01*
X134754538Y-67612307D01*
X134788700Y-67904274D01*
X134724073Y-68279480D01*
X134513095Y-68672954D01*
X134130120Y-69113622D01*
X133549506Y-69630406D01*
X132745605Y-70252231D01*
X132634008Y-70334480D01*
X132112271Y-70723532D01*
X131679422Y-71057769D01*
X131386724Y-71296889D01*
X131287691Y-71392986D01*
X131375073Y-71469289D01*
X131681325Y-71542610D01*
X132108007Y-71593953D01*
X132672965Y-71671822D01*
X133192023Y-71797456D01*
X133465355Y-71902754D01*
X133913221Y-72261881D01*
X134235496Y-72760473D01*
X134358192Y-73281076D01*
X134240603Y-73775498D01*
X133920769Y-74351766D01*
X133448092Y-74953716D01*
X132871972Y-75525184D01*
X132241811Y-76010006D01*
X131686822Y-76318158D01*
X131181659Y-76480761D01*
X130544812Y-76601832D01*
X129869960Y-76672826D01*
X129250784Y-76685193D01*
X128780962Y-76630387D01*
X128668639Y-76593534D01*
X128388814Y-76431187D01*
X128273541Y-76319051D01*
X128242088Y-76044048D01*
X128404762Y-75803601D01*
X128633432Y-75722034D01*
X128871778Y-75787662D01*
X128854388Y-75977303D01*
X128725706Y-76140337D01*
X128714856Y-76255573D01*
X128925050Y-76309805D01*
X129298420Y-76309720D01*
X129777101Y-76262005D01*
X130303227Y-76173347D01*
X130818932Y-76050433D01*
X131266350Y-75899950D01*
X131422934Y-75828636D01*
X132065028Y-75426819D01*
X132665947Y-74916333D01*
X133186581Y-74347154D01*
X133587817Y-73769257D01*
X133830543Y-73232618D01*
X133875645Y-72787214D01*
X133858504Y-72716579D01*
X133653866Y-72461737D01*
X133208728Y-72261702D01*
X132505437Y-72109931D01*
X132064058Y-72051518D01*
X131586488Y-72004906D01*
X131314954Y-72016786D01*
X131170864Y-72108782D01*
X131075626Y-72302517D01*
X131066666Y-72325942D01*
X130963893Y-72690037D01*
X130864859Y-73188151D01*
X130827952Y-73432590D01*
X130707149Y-73952228D01*
X130524144Y-74236382D01*
X130297074Y-74264847D01*
X130165934Y-74170228D01*
X130088402Y-73959720D01*
X130099433Y-73544978D01*
X130159835Y-73110778D01*
X130232328Y-72576973D01*
X130230394Y-72243516D01*
X130150548Y-72032652D01*
X130109114Y-71979661D01*
X129929526Y-71682156D01*
X130003654Y-71432501D01*
X130268361Y-71214891D01*
X130526086Y-70986063D01*
X130627119Y-70783931D01*
X130665278Y-70565155D01*
X130767352Y-70145726D01*
X130839841Y-69877250D01*
X131655330Y-69877250D01*
X131666161Y-70034753D01*
X131810078Y-70017752D01*
X132112888Y-69827042D01*
X132600398Y-69463417D01*
X133110302Y-69071913D01*
X133776756Y-68538755D01*
X134203148Y-68138693D01*
X134394448Y-67855378D01*
X134355621Y-67672463D01*
X134091638Y-67573602D01*
X133607464Y-67542447D01*
X133575128Y-67542373D01*
X132919177Y-67583519D01*
X132462976Y-67699748D01*
X132242046Y-67880244D01*
X132226825Y-67952920D01*
X132181578Y-68207809D01*
X132063160Y-68630741D01*
X131929702Y-69035552D01*
X131751779Y-69544448D01*
X131655330Y-69877250D01*
X130839841Y-69877250D01*
X130914732Y-69599880D01*
X130990762Y-69333181D01*
X131145872Y-68777536D01*
X131257580Y-68337404D01*
X131310228Y-68076619D01*
X131309580Y-68033497D01*
X131157593Y-68056157D01*
X130840875Y-68179325D01*
X130444235Y-68361726D01*
X130052483Y-68562085D01*
X129750427Y-68739127D01*
X129622876Y-68851577D01*
X129622599Y-68854522D01*
X129518210Y-68964276D01*
X129302211Y-68954749D01*
X129120357Y-68833690D01*
X129116454Y-68827612D01*
X129126886Y-68602625D01*
X129370809Y-68335512D01*
X129801562Y-68046485D01*
X130372482Y-67755759D01*
X131036908Y-67483545D01*
X131748176Y-67250057D01*
X132459626Y-67075507D01*
X133124595Y-66980107D01*
X133408609Y-66968362D01*
X134089633Y-67036063D01*
G37*
G36*
X171738134Y-68063514D02*
G01*
X171906965Y-68171327D01*
X171933967Y-68355416D01*
X171815200Y-68681241D01*
X171684962Y-68947242D01*
X171449889Y-69525430D01*
X171206086Y-70327704D01*
X170965595Y-71291898D01*
X170740457Y-72355845D01*
X170542715Y-73457378D01*
X170384408Y-74534330D01*
X170277580Y-75524536D01*
X170234272Y-76365828D01*
X170233898Y-76438603D01*
X170217686Y-77004388D01*
X170163908Y-77325243D01*
X170064855Y-77441686D01*
X170042561Y-77444068D01*
X169798501Y-77380324D01*
X169755555Y-77348399D01*
X169692889Y-77134836D01*
X169665375Y-76694369D01*
X169671105Y-76084694D01*
X169708171Y-75363511D01*
X169774665Y-74588517D01*
X169868681Y-73817411D01*
X169873381Y-73784746D01*
X169961199Y-73165633D01*
X170030835Y-72650016D01*
X170073298Y-72305900D01*
X170082069Y-72206215D01*
X170021735Y-72255671D01*
X169860074Y-72511138D01*
X169627229Y-72923507D01*
X169524602Y-73114431D01*
X169138812Y-73809952D01*
X168830569Y-74283010D01*
X168566490Y-74575845D01*
X168313194Y-74730699D01*
X168224848Y-74759097D01*
X167861879Y-74725902D01*
X167539593Y-74502247D01*
X167369704Y-74173523D01*
X167363842Y-74100956D01*
X167351003Y-73908492D01*
X167273993Y-73904212D01*
X167075072Y-74099329D01*
X167009562Y-74169754D01*
X166532934Y-74559529D01*
X166085275Y-74666521D01*
X165792426Y-74577819D01*
X165501953Y-74275714D01*
X165385348Y-73766770D01*
X165440711Y-73040079D01*
X165484289Y-72808066D01*
X165566209Y-72348495D01*
X165601675Y-72013291D01*
X165588784Y-71890102D01*
X165477614Y-71962437D01*
X165247564Y-72221490D01*
X164938093Y-72614601D01*
X164588662Y-73089114D01*
X164238731Y-73592370D01*
X163927761Y-74071711D01*
X163819498Y-74251130D01*
X163505467Y-74683570D01*
X163232427Y-74869654D01*
X163028164Y-74807187D01*
X162920464Y-74493977D01*
X162910708Y-74322881D01*
X162906162Y-73784746D01*
X162610113Y-74181602D01*
X162187012Y-74624539D01*
X161798759Y-74797937D01*
X161471280Y-74705517D01*
X161230501Y-74350998D01*
X161130698Y-73969337D01*
X161029826Y-73354237D01*
X160806557Y-73784746D01*
X160465216Y-74335819D01*
X160131034Y-74635605D01*
X159804626Y-74717514D01*
X159457496Y-74596127D01*
X159257733Y-74250779D01*
X159236829Y-73981875D01*
X159819853Y-73981875D01*
X159837414Y-74254197D01*
X159949008Y-74259121D01*
X160152144Y-73997642D01*
X160444331Y-73470754D01*
X160596798Y-73162698D01*
X160901877Y-72500621D01*
X161071955Y-72051433D01*
X161118084Y-71780959D01*
X161077992Y-71674828D01*
X160851712Y-71606356D01*
X160595659Y-71778367D01*
X160337074Y-72150056D01*
X160103196Y-72680621D01*
X159921265Y-73329258D01*
X159898817Y-73441163D01*
X159819853Y-73981875D01*
X159236829Y-73981875D01*
X159215670Y-73709688D01*
X159276129Y-73274454D01*
X159421465Y-72564972D01*
X158961637Y-72564972D01*
X158583443Y-72501416D01*
X158323164Y-72349717D01*
X158092755Y-72168070D01*
X157973260Y-72134463D01*
X157788748Y-72261294D01*
X157547087Y-72603653D01*
X157280527Y-73104345D01*
X157021320Y-73706171D01*
X156902257Y-74033880D01*
X156710386Y-74506663D01*
X156525909Y-74741483D01*
X156372182Y-74789265D01*
X156154277Y-74658883D01*
X156050369Y-74273914D01*
X156061521Y-73643624D01*
X156159605Y-72936932D01*
X156216214Y-72636723D01*
X156888135Y-72636723D01*
X156959887Y-72708474D01*
X157031638Y-72636723D01*
X156959887Y-72564972D01*
X156888135Y-72636723D01*
X156216214Y-72636723D01*
X156311010Y-72134005D01*
X156444460Y-71578116D01*
X156575280Y-71231233D01*
X156718791Y-71055324D01*
X156890319Y-71012357D01*
X156933180Y-71016944D01*
X157170523Y-71108208D01*
X157223635Y-71205102D01*
X157185150Y-71426677D01*
X157118303Y-71803863D01*
X157097706Y-71919209D01*
X156995035Y-72493220D01*
X157419756Y-72094818D01*
X157844476Y-71696417D01*
X158464819Y-71974152D01*
X158958851Y-72150775D01*
X159330131Y-72137574D01*
X159683972Y-71913087D01*
X159923394Y-71676887D01*
X160282033Y-71414181D01*
X160691825Y-71276842D01*
X161057408Y-71282606D01*
X161270749Y-71426297D01*
X161436951Y-71474903D01*
X161611234Y-71356505D01*
X161873269Y-71206101D01*
X162027454Y-71293756D01*
X162056831Y-71585297D01*
X161948255Y-72035698D01*
X161807010Y-72542964D01*
X161705689Y-73102773D01*
X161651450Y-73637020D01*
X161651452Y-74067599D01*
X161712855Y-74316406D01*
X161737031Y-74340092D01*
X161922183Y-74297101D01*
X162206205Y-74043860D01*
X162554326Y-73624115D01*
X162931775Y-73081609D01*
X163026272Y-72923729D01*
X163919774Y-72923729D01*
X163991525Y-72995480D01*
X164063277Y-72923729D01*
X163991525Y-72851977D01*
X163919774Y-72923729D01*
X163026272Y-72923729D01*
X163303781Y-72460085D01*
X163451432Y-72183287D01*
X163707671Y-71700036D01*
X163917200Y-71334213D01*
X164045090Y-71145790D01*
X164063277Y-71132756D01*
X164232003Y-71201008D01*
X164335691Y-71261391D01*
X164445018Y-71382226D01*
X164436569Y-71589089D01*
X164305600Y-71965042D01*
X164293810Y-71994620D01*
X164159174Y-72366046D01*
X164097663Y-72608176D01*
X164101556Y-72651085D01*
X164218028Y-72580975D01*
X164481424Y-72349903D01*
X164839939Y-72003980D01*
X164927800Y-71915659D01*
X165385900Y-71471405D01*
X165705110Y-71224511D01*
X165932421Y-71153657D01*
X166114823Y-71237524D01*
X166207426Y-71335084D01*
X166282866Y-71511260D01*
X166285302Y-71811637D01*
X166211465Y-72294697D01*
X166132068Y-72683184D01*
X165996736Y-73443417D01*
X165973693Y-73953491D01*
X166063579Y-74227644D01*
X166204042Y-74287006D01*
X166424421Y-74171610D01*
X166736344Y-73864524D01*
X166778806Y-73811828D01*
X167936874Y-73811828D01*
X168001046Y-74244698D01*
X168087873Y-74397957D01*
X168204858Y-74345567D01*
X168363016Y-74150590D01*
X168557617Y-73846091D01*
X168816914Y-73380234D01*
X169085660Y-72852403D01*
X169092451Y-72838385D01*
X169315335Y-72322996D01*
X169449351Y-71900164D01*
X169470136Y-71647522D01*
X169468042Y-71641461D01*
X169381198Y-71491554D01*
X169235556Y-71510482D01*
X169019236Y-71642050D01*
X168606788Y-72037616D01*
X168265041Y-72592121D01*
X168029800Y-73214035D01*
X167936874Y-73811828D01*
X166778806Y-73811828D01*
X167090991Y-73424399D01*
X167439544Y-72909886D01*
X167641460Y-72560070D01*
X168048977Y-71962506D01*
X168533639Y-71508702D01*
X169038415Y-71239321D01*
X169506274Y-71195022D01*
X169544329Y-71203392D01*
X169691205Y-71216538D01*
X169829139Y-71149452D01*
X169986673Y-70963277D01*
X170192346Y-70619157D01*
X170474701Y-70078234D01*
X170697739Y-69633113D01*
X171066929Y-68912878D01*
X171343231Y-68428992D01*
X171545275Y-68153351D01*
X171691689Y-68057849D01*
X171738134Y-68063514D01*
G37*
G36*
X153920593Y-67025817D02*
G01*
X154526318Y-67272241D01*
X154972796Y-67726862D01*
X155233631Y-68343475D01*
X155282428Y-69075871D01*
X155245592Y-69345373D01*
X155135597Y-69708654D01*
X155010725Y-69809165D01*
X154896231Y-69668325D01*
X154817370Y-69307549D01*
X154797179Y-68965100D01*
X154756676Y-68273532D01*
X154645313Y-67818714D01*
X154445929Y-67555459D01*
X154223769Y-67455398D01*
X153734525Y-67422759D01*
X153233130Y-67591983D01*
X152660412Y-67985128D01*
X152545746Y-68080895D01*
X151696534Y-68976119D01*
X150983990Y-70065505D01*
X150441854Y-71275300D01*
X150103868Y-72531749D01*
X150002115Y-73640786D01*
X150059053Y-74405140D01*
X150220134Y-74928128D01*
X150477264Y-75200357D01*
X150822342Y-75212434D01*
X151181546Y-75008952D01*
X151436089Y-74758354D01*
X151804619Y-74332951D01*
X152238487Y-73794416D01*
X152689045Y-73204420D01*
X153107644Y-72624638D01*
X153373912Y-72229647D01*
X153636886Y-71822570D01*
X153002341Y-71870890D01*
X152591811Y-71878824D01*
X152401757Y-71809766D01*
X152367796Y-71703955D01*
X152499021Y-71553466D01*
X152849440Y-71443564D01*
X153354168Y-71373946D01*
X153948322Y-71344307D01*
X154567016Y-71354344D01*
X155145368Y-71403753D01*
X155618493Y-71492231D01*
X155921506Y-71619475D01*
X155996160Y-71720932D01*
X155977706Y-71855651D01*
X155811045Y-71907329D01*
X155434051Y-71891524D01*
X155347137Y-71883492D01*
X154653980Y-71816889D01*
X154396742Y-74522851D01*
X154314345Y-75390859D01*
X154240189Y-76174382D01*
X154179023Y-76823077D01*
X154135592Y-77286603D01*
X154114667Y-77514353D01*
X153984864Y-77770521D01*
X153838700Y-77847757D01*
X153701449Y-77838627D01*
X153626617Y-77705690D01*
X153597590Y-77390114D01*
X153595977Y-76988206D01*
X153614721Y-76476175D01*
X153659203Y-75775908D01*
X153722515Y-74984311D01*
X153788536Y-74287006D01*
X153856108Y-73604715D01*
X153907813Y-73035294D01*
X153938955Y-72634222D01*
X153944836Y-72456981D01*
X153943746Y-72453541D01*
X153851571Y-72539614D01*
X153635292Y-72803433D01*
X153339369Y-73190451D01*
X153300451Y-73242806D01*
X152526150Y-74217198D01*
X151839844Y-74927123D01*
X151231953Y-75378024D01*
X150692900Y-75575346D01*
X150213104Y-75524531D01*
X149789718Y-75237792D01*
X149477914Y-74734715D01*
X149325106Y-74044357D01*
X149322339Y-73212174D01*
X149460663Y-72283620D01*
X149731125Y-71304150D01*
X150124774Y-70319222D01*
X150632657Y-69374289D01*
X151070129Y-68736221D01*
X151731503Y-67993659D01*
X152424423Y-67441843D01*
X153109204Y-67104586D01*
X153746159Y-67005702D01*
X153920593Y-67025817D01*
G37*
G36*
X143125162Y-71232354D02*
G01*
X143212169Y-71397950D01*
X143193710Y-71673144D01*
X143064073Y-72132023D01*
X143053256Y-72165122D01*
X142888415Y-72751651D01*
X142770902Y-73334675D01*
X142707817Y-73850088D01*
X142706260Y-74233781D01*
X142773330Y-74421648D01*
X142802365Y-74430508D01*
X142964330Y-74299816D01*
X143198862Y-73929939D01*
X143488390Y-73354175D01*
X143815342Y-72605824D01*
X143976052Y-72206215D01*
X144222755Y-71632248D01*
X144423594Y-71309411D01*
X144603482Y-71210695D01*
X144787337Y-71309088D01*
X144795857Y-71317471D01*
X144889627Y-71508041D01*
X144898188Y-71848943D01*
X144832563Y-72352677D01*
X144732949Y-73000573D01*
X144704091Y-73384857D01*
X144764888Y-73524198D01*
X144934237Y-73437266D01*
X145231037Y-73142729D01*
X145422309Y-72935293D01*
X145900368Y-72440940D01*
X146219408Y-72179213D01*
X146383990Y-72146911D01*
X146410441Y-72242090D01*
X146321926Y-72392919D01*
X146087554Y-72702313D01*
X145751169Y-73113460D01*
X145607496Y-73282486D01*
X145183312Y-73792483D01*
X144872464Y-74225561D01*
X144642053Y-74654607D01*
X144459180Y-75152508D01*
X144290947Y-75792152D01*
X144117754Y-76583051D01*
X143931481Y-77346969D01*
X143696864Y-78135461D01*
X143452128Y-78825398D01*
X143338176Y-79094350D01*
X142933503Y-79829638D01*
X142482149Y-80411654D01*
X142017211Y-80815542D01*
X141571784Y-81016445D01*
X141178965Y-80989506D01*
X140988022Y-80859435D01*
X140832357Y-80508124D01*
X140845493Y-80216300D01*
X141234244Y-80216300D01*
X141286491Y-80574533D01*
X141336947Y-80643915D01*
X141541534Y-80665321D01*
X141844395Y-80461792D01*
X142209518Y-80062044D01*
X142411333Y-79787180D01*
X142769428Y-79143501D01*
X143108248Y-78314654D01*
X143392340Y-77402023D01*
X143586247Y-76506989D01*
X143607148Y-76367797D01*
X143707041Y-75650282D01*
X143020821Y-76583051D01*
X142443707Y-77426912D01*
X141960519Y-78250687D01*
X141587231Y-79015857D01*
X141339815Y-79683902D01*
X141234244Y-80216300D01*
X140845493Y-80216300D01*
X140856434Y-79973256D01*
X141048380Y-79284945D01*
X141396323Y-78473307D01*
X141888391Y-77568459D01*
X142512712Y-76600514D01*
X142855115Y-76123358D01*
X143420065Y-75292818D01*
X143777498Y-74594106D01*
X143947361Y-73984027D01*
X143968100Y-73712994D01*
X143906365Y-73697508D01*
X143745615Y-73888845D01*
X143605119Y-74106813D01*
X143224672Y-74596461D01*
X142839192Y-74823269D01*
X142469900Y-74780332D01*
X142211014Y-74560455D01*
X142040856Y-74278999D01*
X141987012Y-73938604D01*
X142019252Y-73498426D01*
X142149893Y-72721924D01*
X142331248Y-72063600D01*
X142545512Y-71559937D01*
X142774881Y-71247418D01*
X143001548Y-71162524D01*
X143125162Y-71232354D01*
G37*
D15*
X177460000Y-48762000D02*
X182540000Y-48762000D01*
X182540000Y-48762000D02*
X182540000Y-47238000D01*
X182540000Y-47238000D02*
X177460000Y-47238000D01*
X177460000Y-47238000D02*
X177460000Y-48762000D01*
X177460000Y-48762000D02*
X177968000Y-48762000D01*
X182159000Y-48762000D02*
X182159000Y-47238000D01*
X182286000Y-47238000D02*
X182286000Y-48762000D01*
X182413000Y-48762000D02*
X182413000Y-47238000D01*
X182032000Y-47238000D02*
X182032000Y-48762000D01*
X181905000Y-48762000D02*
X181905000Y-47238000D01*
X181778000Y-48762000D02*
X181778000Y-47238000D01*
X186460000Y-31762000D02*
X191540000Y-31762000D01*
X191540000Y-31762000D02*
X191540000Y-30238000D01*
X191540000Y-30238000D02*
X186460000Y-30238000D01*
X186460000Y-30238000D02*
X186460000Y-31762000D01*
X186460000Y-31762000D02*
X186968000Y-31762000D01*
X191159000Y-31762000D02*
X191159000Y-30238000D01*
X191286000Y-30238000D02*
X191286000Y-31762000D01*
X191413000Y-31762000D02*
X191413000Y-30238000D01*
X191032000Y-30238000D02*
X191032000Y-31762000D01*
X190905000Y-31762000D02*
X190905000Y-30238000D01*
X190778000Y-31762000D02*
X190778000Y-30238000D01*
X167512000Y-57290000D02*
X167512000Y-52210000D01*
X167512000Y-52210000D02*
X165988000Y-52210000D01*
X165988000Y-52210000D02*
X165988000Y-57290000D01*
X165988000Y-57290000D02*
X167512000Y-57290000D01*
X167512000Y-57290000D02*
X167512000Y-56782000D01*
X167512000Y-52591000D02*
X165988000Y-52591000D01*
X165988000Y-52464000D02*
X167512000Y-52464000D01*
X167512000Y-52337000D02*
X165988000Y-52337000D01*
X165988000Y-52718000D02*
X167512000Y-52718000D01*
X167512000Y-52845000D02*
X165988000Y-52845000D01*
X167512000Y-52972000D02*
X165988000Y-52972000D01*
X163860000Y-48762000D02*
X168940000Y-48762000D01*
X168940000Y-48762000D02*
X168940000Y-47238000D01*
X168940000Y-47238000D02*
X163860000Y-47238000D01*
X163860000Y-47238000D02*
X163860000Y-48762000D01*
X163860000Y-48762000D02*
X164368000Y-48762000D01*
X168559000Y-48762000D02*
X168559000Y-47238000D01*
X168686000Y-47238000D02*
X168686000Y-48762000D01*
X168813000Y-48762000D02*
X168813000Y-47238000D01*
X168432000Y-47238000D02*
X168432000Y-48762000D01*
X168305000Y-48762000D02*
X168305000Y-47238000D01*
X168178000Y-48762000D02*
X168178000Y-47238000D01*
X168460000Y-31762000D02*
X173540000Y-31762000D01*
X173540000Y-31762000D02*
X173540000Y-30238000D01*
X173540000Y-30238000D02*
X168460000Y-30238000D01*
X168460000Y-30238000D02*
X168460000Y-31762000D01*
X168460000Y-31762000D02*
X168968000Y-31762000D01*
X173159000Y-31762000D02*
X173159000Y-30238000D01*
X173286000Y-30238000D02*
X173286000Y-31762000D01*
X173413000Y-31762000D02*
X173413000Y-30238000D01*
X173032000Y-30238000D02*
X173032000Y-31762000D01*
X172905000Y-31762000D02*
X172905000Y-30238000D01*
X172778000Y-31762000D02*
X172778000Y-30238000D01*
X149762000Y-57290000D02*
X149762000Y-52210000D01*
X149762000Y-52210000D02*
X148238000Y-52210000D01*
X148238000Y-52210000D02*
X148238000Y-57290000D01*
X148238000Y-57290000D02*
X149762000Y-57290000D01*
X149762000Y-57290000D02*
X149762000Y-56782000D01*
X149762000Y-52591000D02*
X148238000Y-52591000D01*
X148238000Y-52464000D02*
X149762000Y-52464000D01*
X149762000Y-52337000D02*
X148238000Y-52337000D01*
X148238000Y-52718000D02*
X149762000Y-52718000D01*
X149762000Y-52845000D02*
X148238000Y-52845000D01*
X149762000Y-52972000D02*
X148238000Y-52972000D01*
X150460000Y-48762000D02*
X155540000Y-48762000D01*
X155540000Y-48762000D02*
X155540000Y-47238000D01*
X155540000Y-47238000D02*
X150460000Y-47238000D01*
X150460000Y-47238000D02*
X150460000Y-48762000D01*
X150460000Y-48762000D02*
X150968000Y-48762000D01*
X155159000Y-48762000D02*
X155159000Y-47238000D01*
X155286000Y-47238000D02*
X155286000Y-48762000D01*
X155413000Y-48762000D02*
X155413000Y-47238000D01*
X155032000Y-47238000D02*
X155032000Y-48762000D01*
X154905000Y-48762000D02*
X154905000Y-47238000D01*
X154778000Y-48762000D02*
X154778000Y-47238000D01*
X150460000Y-31762000D02*
X155540000Y-31762000D01*
X155540000Y-31762000D02*
X155540000Y-30238000D01*
X155540000Y-30238000D02*
X150460000Y-30238000D01*
X150460000Y-30238000D02*
X150460000Y-31762000D01*
X150460000Y-31762000D02*
X150968000Y-31762000D01*
X155159000Y-31762000D02*
X155159000Y-30238000D01*
X155286000Y-30238000D02*
X155286000Y-31762000D01*
X155413000Y-31762000D02*
X155413000Y-30238000D01*
X155032000Y-30238000D02*
X155032000Y-31762000D01*
X154905000Y-31762000D02*
X154905000Y-30238000D01*
X154778000Y-31762000D02*
X154778000Y-30238000D01*
X131762000Y-57290000D02*
X131762000Y-52210000D01*
X131762000Y-52210000D02*
X130238000Y-52210000D01*
X130238000Y-52210000D02*
X130238000Y-57290000D01*
X130238000Y-57290000D02*
X131762000Y-57290000D01*
X131762000Y-57290000D02*
X131762000Y-56782000D01*
X131762000Y-52591000D02*
X130238000Y-52591000D01*
X130238000Y-52464000D02*
X131762000Y-52464000D01*
X131762000Y-52337000D02*
X130238000Y-52337000D01*
X130238000Y-52718000D02*
X131762000Y-52718000D01*
X131762000Y-52845000D02*
X130238000Y-52845000D01*
X131762000Y-52972000D02*
X130238000Y-52972000D01*
X132460000Y-48762000D02*
X137540000Y-48762000D01*
X137540000Y-48762000D02*
X137540000Y-47238000D01*
X137540000Y-47238000D02*
X132460000Y-47238000D01*
X132460000Y-47238000D02*
X132460000Y-48762000D01*
X132460000Y-48762000D02*
X132968000Y-48762000D01*
X137159000Y-48762000D02*
X137159000Y-47238000D01*
X137286000Y-47238000D02*
X137286000Y-48762000D01*
X137413000Y-48762000D02*
X137413000Y-47238000D01*
X137032000Y-47238000D02*
X137032000Y-48762000D01*
X136905000Y-48762000D02*
X136905000Y-47238000D01*
X136778000Y-48762000D02*
X136778000Y-47238000D01*
X132460000Y-31762000D02*
X137540000Y-31762000D01*
X137540000Y-31762000D02*
X137540000Y-30238000D01*
X137540000Y-30238000D02*
X132460000Y-30238000D01*
X132460000Y-30238000D02*
X132460000Y-31762000D01*
X132460000Y-31762000D02*
X132968000Y-31762000D01*
X137159000Y-31762000D02*
X137159000Y-30238000D01*
X137286000Y-30238000D02*
X137286000Y-31762000D01*
X137413000Y-31762000D02*
X137413000Y-30238000D01*
X137032000Y-30238000D02*
X137032000Y-31762000D01*
X136905000Y-31762000D02*
X136905000Y-30238000D01*
X136778000Y-31762000D02*
X136778000Y-30238000D01*
X114460000Y-65762000D02*
X119540000Y-65762000D01*
X119540000Y-65762000D02*
X119540000Y-64238000D01*
X119540000Y-64238000D02*
X114460000Y-64238000D01*
X114460000Y-64238000D02*
X114460000Y-65762000D01*
X114460000Y-65762000D02*
X114968000Y-65762000D01*
X119159000Y-65762000D02*
X119159000Y-64238000D01*
X119286000Y-64238000D02*
X119286000Y-65762000D01*
X119413000Y-65762000D02*
X119413000Y-64238000D01*
X119032000Y-64238000D02*
X119032000Y-65762000D01*
X118905000Y-65762000D02*
X118905000Y-64238000D01*
X118778000Y-65762000D02*
X118778000Y-64238000D01*
X113762000Y-57290000D02*
X113762000Y-52210000D01*
X113762000Y-52210000D02*
X112238000Y-52210000D01*
X112238000Y-52210000D02*
X112238000Y-57290000D01*
X112238000Y-57290000D02*
X113762000Y-57290000D01*
X113762000Y-57290000D02*
X113762000Y-56782000D01*
X113762000Y-52591000D02*
X112238000Y-52591000D01*
X112238000Y-52464000D02*
X113762000Y-52464000D01*
X113762000Y-52337000D02*
X112238000Y-52337000D01*
X112238000Y-52718000D02*
X113762000Y-52718000D01*
X113762000Y-52845000D02*
X112238000Y-52845000D01*
X113762000Y-52972000D02*
X112238000Y-52972000D01*
X114460000Y-48762000D02*
X119540000Y-48762000D01*
X119540000Y-48762000D02*
X119540000Y-47238000D01*
X119540000Y-47238000D02*
X114460000Y-47238000D01*
X114460000Y-47238000D02*
X114460000Y-48762000D01*
X114460000Y-48762000D02*
X114968000Y-48762000D01*
X119159000Y-48762000D02*
X119159000Y-47238000D01*
X119286000Y-47238000D02*
X119286000Y-48762000D01*
X119413000Y-48762000D02*
X119413000Y-47238000D01*
X119032000Y-47238000D02*
X119032000Y-48762000D01*
X118905000Y-48762000D02*
X118905000Y-47238000D01*
X118778000Y-48762000D02*
X118778000Y-47238000D01*
X114460000Y-31762000D02*
X119540000Y-31762000D01*
X119540000Y-31762000D02*
X119540000Y-30238000D01*
X119540000Y-30238000D02*
X114460000Y-30238000D01*
X114460000Y-30238000D02*
X114460000Y-31762000D01*
X114460000Y-31762000D02*
X114968000Y-31762000D01*
X119159000Y-31762000D02*
X119159000Y-30238000D01*
X119286000Y-30238000D02*
X119286000Y-31762000D01*
X119413000Y-31762000D02*
X119413000Y-30238000D01*
X119032000Y-30238000D02*
X119032000Y-31762000D01*
X118905000Y-31762000D02*
X118905000Y-30238000D01*
X118778000Y-31762000D02*
X118778000Y-30238000D01*
X92460000Y-65762000D02*
X97540000Y-65762000D01*
X97540000Y-65762000D02*
X97540000Y-64238000D01*
X97540000Y-64238000D02*
X92460000Y-64238000D01*
X92460000Y-64238000D02*
X92460000Y-65762000D01*
X92460000Y-65762000D02*
X92968000Y-65762000D01*
X97159000Y-65762000D02*
X97159000Y-64238000D01*
X97286000Y-64238000D02*
X97286000Y-65762000D01*
X97413000Y-65762000D02*
X97413000Y-64238000D01*
X97032000Y-64238000D02*
X97032000Y-65762000D01*
X96905000Y-65762000D02*
X96905000Y-64238000D01*
X96778000Y-65762000D02*
X96778000Y-64238000D01*
X104762000Y-72290000D02*
X104762000Y-67210000D01*
X104762000Y-67210000D02*
X103238000Y-67210000D01*
X103238000Y-67210000D02*
X103238000Y-72290000D01*
X103238000Y-72290000D02*
X104762000Y-72290000D01*
X104762000Y-72290000D02*
X104762000Y-71782000D01*
X104762000Y-67591000D02*
X103238000Y-67591000D01*
X103238000Y-67464000D02*
X104762000Y-67464000D01*
X104762000Y-67337000D02*
X103238000Y-67337000D01*
X103238000Y-67718000D02*
X104762000Y-67718000D01*
X104762000Y-67845000D02*
X103238000Y-67845000D01*
X104762000Y-67972000D02*
X103238000Y-67972000D01*
X96460000Y-48762000D02*
X101540000Y-48762000D01*
X101540000Y-48762000D02*
X101540000Y-47238000D01*
X101540000Y-47238000D02*
X96460000Y-47238000D01*
X96460000Y-47238000D02*
X96460000Y-48762000D01*
X96460000Y-48762000D02*
X96968000Y-48762000D01*
X101159000Y-48762000D02*
X101159000Y-47238000D01*
X101286000Y-47238000D02*
X101286000Y-48762000D01*
X101413000Y-48762000D02*
X101413000Y-47238000D01*
X101032000Y-47238000D02*
X101032000Y-48762000D01*
X100905000Y-48762000D02*
X100905000Y-47238000D01*
X100778000Y-48762000D02*
X100778000Y-47238000D01*
X96460000Y-31762000D02*
X101540000Y-31762000D01*
X101540000Y-31762000D02*
X101540000Y-30238000D01*
X101540000Y-30238000D02*
X96460000Y-30238000D01*
X96460000Y-30238000D02*
X96460000Y-31762000D01*
X96460000Y-31762000D02*
X96968000Y-31762000D01*
X101159000Y-31762000D02*
X101159000Y-30238000D01*
X101286000Y-30238000D02*
X101286000Y-31762000D01*
X101413000Y-31762000D02*
X101413000Y-30238000D01*
X101032000Y-30238000D02*
X101032000Y-31762000D01*
X100905000Y-31762000D02*
X100905000Y-30238000D01*
X100778000Y-31762000D02*
X100778000Y-30238000D01*
X95762000Y-57290000D02*
X95762000Y-52210000D01*
X95762000Y-52210000D02*
X94238000Y-52210000D01*
X94238000Y-52210000D02*
X94238000Y-57290000D01*
X94238000Y-57290000D02*
X95762000Y-57290000D01*
X95762000Y-57290000D02*
X95762000Y-56782000D01*
X95762000Y-52591000D02*
X94238000Y-52591000D01*
X94238000Y-52464000D02*
X95762000Y-52464000D01*
X95762000Y-52337000D02*
X94238000Y-52337000D01*
X94238000Y-52718000D02*
X95762000Y-52718000D01*
X95762000Y-52845000D02*
X94238000Y-52845000D01*
X95762000Y-52972000D02*
X94238000Y-52972000D01*
X78460000Y-48762000D02*
X83540000Y-48762000D01*
X83540000Y-48762000D02*
X83540000Y-47238000D01*
X83540000Y-47238000D02*
X78460000Y-47238000D01*
X78460000Y-47238000D02*
X78460000Y-48762000D01*
X78460000Y-48762000D02*
X78968000Y-48762000D01*
X83159000Y-48762000D02*
X83159000Y-47238000D01*
X83286000Y-47238000D02*
X83286000Y-48762000D01*
X83413000Y-48762000D02*
X83413000Y-47238000D01*
X83032000Y-47238000D02*
X83032000Y-48762000D01*
X82905000Y-48762000D02*
X82905000Y-47238000D01*
X82778000Y-48762000D02*
X82778000Y-47238000D01*
X78460000Y-31762000D02*
X83540000Y-31762000D01*
X83540000Y-31762000D02*
X83540000Y-30238000D01*
X83540000Y-30238000D02*
X78460000Y-30238000D01*
X78460000Y-30238000D02*
X78460000Y-31762000D01*
X78460000Y-31762000D02*
X78968000Y-31762000D01*
X83159000Y-31762000D02*
X83159000Y-30238000D01*
X83286000Y-30238000D02*
X83286000Y-31762000D01*
X83413000Y-31762000D02*
X83413000Y-30238000D01*
X83032000Y-30238000D02*
X83032000Y-31762000D01*
X82905000Y-31762000D02*
X82905000Y-30238000D01*
X82778000Y-31762000D02*
X82778000Y-30238000D01*
X77762000Y-57290000D02*
X77762000Y-52210000D01*
X77762000Y-52210000D02*
X76238000Y-52210000D01*
X76238000Y-52210000D02*
X76238000Y-57290000D01*
X76238000Y-57290000D02*
X77762000Y-57290000D01*
X77762000Y-57290000D02*
X77762000Y-56782000D01*
X77762000Y-52591000D02*
X76238000Y-52591000D01*
X76238000Y-52464000D02*
X77762000Y-52464000D01*
X77762000Y-52337000D02*
X76238000Y-52337000D01*
X76238000Y-52718000D02*
X77762000Y-52718000D01*
X77762000Y-52845000D02*
X76238000Y-52845000D01*
X77762000Y-52972000D02*
X76238000Y-52972000D01*
X60460000Y-48512000D02*
X65540000Y-48512000D01*
X65540000Y-48512000D02*
X65540000Y-46988000D01*
X65540000Y-46988000D02*
X60460000Y-46988000D01*
X60460000Y-46988000D02*
X60460000Y-48512000D01*
X60460000Y-48512000D02*
X60968000Y-48512000D01*
X65159000Y-48512000D02*
X65159000Y-46988000D01*
X65286000Y-46988000D02*
X65286000Y-48512000D01*
X65413000Y-48512000D02*
X65413000Y-46988000D01*
X65032000Y-46988000D02*
X65032000Y-48512000D01*
X64905000Y-48512000D02*
X64905000Y-46988000D01*
X64778000Y-48512000D02*
X64778000Y-46988000D01*
X60460000Y-31762000D02*
X65540000Y-31762000D01*
X65540000Y-31762000D02*
X65540000Y-30238000D01*
X65540000Y-30238000D02*
X60460000Y-30238000D01*
X60460000Y-30238000D02*
X60460000Y-31762000D01*
X60460000Y-31762000D02*
X60968000Y-31762000D01*
X65159000Y-31762000D02*
X65159000Y-30238000D01*
X65286000Y-30238000D02*
X65286000Y-31762000D01*
X65413000Y-31762000D02*
X65413000Y-30238000D01*
X65032000Y-30238000D02*
X65032000Y-31762000D01*
X64905000Y-31762000D02*
X64905000Y-30238000D01*
X64778000Y-31762000D02*
X64778000Y-30238000D01*
X59762000Y-57290000D02*
X59762000Y-52210000D01*
X59762000Y-52210000D02*
X58238000Y-52210000D01*
X58238000Y-52210000D02*
X58238000Y-57290000D01*
X58238000Y-57290000D02*
X59762000Y-57290000D01*
X59762000Y-57290000D02*
X59762000Y-56782000D01*
X59762000Y-52591000D02*
X58238000Y-52591000D01*
X58238000Y-52464000D02*
X59762000Y-52464000D01*
X59762000Y-52337000D02*
X58238000Y-52337000D01*
X58238000Y-52718000D02*
X59762000Y-52718000D01*
X59762000Y-52845000D02*
X58238000Y-52845000D01*
X59762000Y-52972000D02*
X58238000Y-52972000D01*
X43460000Y-48762000D02*
X48540000Y-48762000D01*
X48540000Y-48762000D02*
X48540000Y-47238000D01*
X48540000Y-47238000D02*
X43460000Y-47238000D01*
X43460000Y-47238000D02*
X43460000Y-48762000D01*
X43460000Y-48762000D02*
X43968000Y-48762000D01*
X48159000Y-48762000D02*
X48159000Y-47238000D01*
X48286000Y-47238000D02*
X48286000Y-48762000D01*
X48413000Y-48762000D02*
X48413000Y-47238000D01*
X48032000Y-47238000D02*
X48032000Y-48762000D01*
X47905000Y-48762000D02*
X47905000Y-47238000D01*
X47778000Y-48762000D02*
X47778000Y-47238000D01*
X42460000Y-31762000D02*
X47540000Y-31762000D01*
X47540000Y-31762000D02*
X47540000Y-30238000D01*
X47540000Y-30238000D02*
X42460000Y-30238000D01*
X42460000Y-30238000D02*
X42460000Y-31762000D01*
X42460000Y-31762000D02*
X42968000Y-31762000D01*
X47159000Y-31762000D02*
X47159000Y-30238000D01*
X47286000Y-30238000D02*
X47286000Y-31762000D01*
X47413000Y-31762000D02*
X47413000Y-30238000D01*
X47032000Y-30238000D02*
X47032000Y-31762000D01*
X46905000Y-31762000D02*
X46905000Y-30238000D01*
X46778000Y-31762000D02*
X46778000Y-30238000D01*
X41762000Y-57290000D02*
X41762000Y-52210000D01*
X41762000Y-52210000D02*
X40238000Y-52210000D01*
X40238000Y-52210000D02*
X40238000Y-57290000D01*
X40238000Y-57290000D02*
X41762000Y-57290000D01*
X41762000Y-57290000D02*
X41762000Y-56782000D01*
X41762000Y-52591000D02*
X40238000Y-52591000D01*
X40238000Y-52464000D02*
X41762000Y-52464000D01*
X41762000Y-52337000D02*
X40238000Y-52337000D01*
X40238000Y-52718000D02*
X41762000Y-52718000D01*
X41762000Y-52845000D02*
X40238000Y-52845000D01*
X41762000Y-52972000D02*
X40238000Y-52972000D01*
X26710000Y-48762000D02*
X31790000Y-48762000D01*
X31790000Y-48762000D02*
X31790000Y-47238000D01*
X31790000Y-47238000D02*
X26710000Y-47238000D01*
X26710000Y-47238000D02*
X26710000Y-48762000D01*
X26710000Y-48762000D02*
X27218000Y-48762000D01*
X31409000Y-48762000D02*
X31409000Y-47238000D01*
X31536000Y-47238000D02*
X31536000Y-48762000D01*
X31663000Y-48762000D02*
X31663000Y-47238000D01*
X31282000Y-47238000D02*
X31282000Y-48762000D01*
X31155000Y-48762000D02*
X31155000Y-47238000D01*
X31028000Y-48762000D02*
X31028000Y-47238000D01*
X24460000Y-31762000D02*
X29540000Y-31762000D01*
X29540000Y-31762000D02*
X29540000Y-30238000D01*
X29540000Y-30238000D02*
X24460000Y-30238000D01*
X24460000Y-30238000D02*
X24460000Y-31762000D01*
X24460000Y-31762000D02*
X24968000Y-31762000D01*
X29159000Y-31762000D02*
X29159000Y-30238000D01*
X29286000Y-30238000D02*
X29286000Y-31762000D01*
X29413000Y-31762000D02*
X29413000Y-30238000D01*
X29032000Y-30238000D02*
X29032000Y-31762000D01*
X28905000Y-31762000D02*
X28905000Y-30238000D01*
X28778000Y-31762000D02*
X28778000Y-30238000D01*
%LPC*%
D16*
X24280000Y-81740000D03*
D17*
X26820000Y-81740000D03*
X29360000Y-81740000D03*
X31900000Y-81740000D03*
X34440000Y-81740000D03*
X36980000Y-81740000D03*
X39520000Y-81740000D03*
X42060000Y-81740000D03*
X44600000Y-81740000D03*
X47140000Y-81740000D03*
X49680000Y-81740000D03*
X52220000Y-66500000D03*
X49680000Y-66500000D03*
X47140000Y-66500000D03*
X44600000Y-66500000D03*
X42060000Y-66500000D03*
X39520000Y-66500000D03*
X36980000Y-66500000D03*
X34440000Y-66500000D03*
X31900000Y-66500000D03*
X29360000Y-66500000D03*
X26820000Y-66500000D03*
X52220000Y-81740000D03*
X24280000Y-66500000D03*
D18*
X95000000Y-67600000D03*
X100000000Y-69700000D03*
D19*
X100500000Y-73500000D03*
X89500000Y-73500000D03*
D20*
X95000000Y-73500000D03*
D18*
X140000000Y-62400000D03*
X135000000Y-60300000D03*
D19*
X134500000Y-56500000D03*
X145500000Y-56500000D03*
D20*
X140000000Y-56500000D03*
D18*
X68000000Y-62400000D03*
X63000000Y-60300000D03*
D19*
X62500000Y-56500000D03*
X73500000Y-56500000D03*
D20*
X68000000Y-56500000D03*
D18*
X50000000Y-62400000D03*
X45000000Y-60300000D03*
D19*
X44500000Y-56500000D03*
X55500000Y-56500000D03*
D20*
X50000000Y-56500000D03*
D18*
X23000000Y-45400000D03*
X18000000Y-43300000D03*
D19*
X17500000Y-39500000D03*
X28500000Y-39500000D03*
D20*
X23000000Y-39500000D03*
D18*
X167000000Y-28400000D03*
X162000000Y-26300000D03*
D19*
X161500000Y-22500000D03*
X172500000Y-22500000D03*
D20*
X167000000Y-22500000D03*
D18*
X185000000Y-45400000D03*
X180000000Y-43300000D03*
D19*
X179500000Y-39500000D03*
X190500000Y-39500000D03*
D20*
X185000000Y-39500000D03*
D18*
X185000000Y-28400000D03*
X180000000Y-26300000D03*
D19*
X179500000Y-22500000D03*
X190500000Y-22500000D03*
D20*
X185000000Y-22500000D03*
D18*
X176000000Y-62400000D03*
X171000000Y-60300000D03*
D19*
X170500000Y-56500000D03*
X181500000Y-56500000D03*
D20*
X176000000Y-56500000D03*
D18*
X167000000Y-45400000D03*
X162000000Y-43300000D03*
D19*
X161500000Y-39500000D03*
X172500000Y-39500000D03*
D20*
X167000000Y-39500000D03*
D18*
X158000000Y-62400000D03*
X153000000Y-60300000D03*
D19*
X152500000Y-56500000D03*
X163500000Y-56500000D03*
D20*
X158000000Y-56500000D03*
D18*
X149000000Y-45400000D03*
X144000000Y-43300000D03*
D19*
X143500000Y-39500000D03*
X154500000Y-39500000D03*
D20*
X149000000Y-39500000D03*
D18*
X149000000Y-28400000D03*
X144000000Y-26300000D03*
D19*
X143500000Y-22500000D03*
X154500000Y-22500000D03*
D20*
X149000000Y-22500000D03*
D18*
X131000000Y-45400000D03*
X126000000Y-43300000D03*
D19*
X125500000Y-39500000D03*
X136500000Y-39500000D03*
D20*
X131000000Y-39500000D03*
D18*
X131000000Y-28400000D03*
X126000000Y-26300000D03*
D19*
X125500000Y-22500000D03*
X136500000Y-22500000D03*
D20*
X131000000Y-22500000D03*
D18*
X113000000Y-67600000D03*
X118000000Y-69700000D03*
D19*
X118500000Y-73500000D03*
X107500000Y-73500000D03*
D20*
X113000000Y-73500000D03*
D18*
X122000000Y-62400000D03*
X117000000Y-60300000D03*
D19*
X116500000Y-56500000D03*
X127500000Y-56500000D03*
D20*
X122000000Y-56500000D03*
D18*
X113000000Y-45400000D03*
X108000000Y-43300000D03*
D19*
X107500000Y-39500000D03*
X118500000Y-39500000D03*
D20*
X113000000Y-39500000D03*
D18*
X113000000Y-28400000D03*
X108000000Y-26300000D03*
D19*
X107500000Y-22500000D03*
X118500000Y-22500000D03*
D20*
X113000000Y-22500000D03*
D18*
X104000000Y-62400000D03*
X99000000Y-60300000D03*
D19*
X98500000Y-56500000D03*
X109500000Y-56500000D03*
D20*
X104000000Y-56500000D03*
D18*
X95000000Y-45400000D03*
X90000000Y-43300000D03*
D19*
X89500000Y-39500000D03*
X100500000Y-39500000D03*
D20*
X95000000Y-39500000D03*
D18*
X95000000Y-28400000D03*
X90000000Y-26300000D03*
D19*
X89500000Y-22500000D03*
X100500000Y-22500000D03*
D20*
X95000000Y-22500000D03*
D18*
X86000000Y-62400000D03*
X81000000Y-60300000D03*
D19*
X80500000Y-56500000D03*
X91500000Y-56500000D03*
D20*
X86000000Y-56500000D03*
D18*
X77000000Y-45400000D03*
X72000000Y-43300000D03*
D19*
X71500000Y-39500000D03*
X82500000Y-39500000D03*
D20*
X77000000Y-39500000D03*
D18*
X77000000Y-28400000D03*
X72000000Y-26300000D03*
D19*
X71500000Y-22500000D03*
X82500000Y-22500000D03*
D20*
X77000000Y-22500000D03*
D18*
X59000000Y-45400000D03*
X54000000Y-43300000D03*
D19*
X53500000Y-39500000D03*
X64500000Y-39500000D03*
D20*
X59000000Y-39500000D03*
D18*
X59000000Y-28400000D03*
X54000000Y-26300000D03*
D19*
X53500000Y-22500000D03*
X64500000Y-22500000D03*
D20*
X59000000Y-22500000D03*
D18*
X41000000Y-45400000D03*
X36000000Y-43300000D03*
D19*
X35500000Y-39500000D03*
X46500000Y-39500000D03*
D20*
X41000000Y-39500000D03*
D18*
X41000000Y-28400000D03*
X36000000Y-26300000D03*
D19*
X35500000Y-22500000D03*
X46500000Y-22500000D03*
D20*
X41000000Y-22500000D03*
D18*
X32000000Y-62400000D03*
X27000000Y-60300000D03*
D19*
X26500000Y-56500000D03*
X37500000Y-56500000D03*
D20*
X32000000Y-56500000D03*
D18*
X23000000Y-28400000D03*
X18000000Y-26300000D03*
D19*
X17500000Y-22500000D03*
X28500000Y-22500000D03*
D20*
X23000000Y-22500000D03*
D21*
X183900000Y-48000000D03*
D22*
X176100000Y-48000000D03*
D23*
X178600000Y-48000000D03*
X181400000Y-48000000D03*
D21*
X192900000Y-31000000D03*
D22*
X185100000Y-31000000D03*
D23*
X187600000Y-31000000D03*
X190400000Y-31000000D03*
D21*
X166750000Y-50850000D03*
D22*
X166750000Y-58650000D03*
D24*
X166750000Y-56150000D03*
X166750000Y-53350000D03*
D21*
X170300000Y-48000000D03*
D22*
X162500000Y-48000000D03*
D23*
X165000000Y-48000000D03*
X167800000Y-48000000D03*
D21*
X174900000Y-31000000D03*
D22*
X167100000Y-31000000D03*
D23*
X169600000Y-31000000D03*
X172400000Y-31000000D03*
D21*
X149000000Y-50850000D03*
D22*
X149000000Y-58650000D03*
D24*
X149000000Y-56150000D03*
X149000000Y-53350000D03*
D21*
X156900000Y-48000000D03*
D22*
X149100000Y-48000000D03*
D23*
X151600000Y-48000000D03*
X154400000Y-48000000D03*
D21*
X156900000Y-31000000D03*
D22*
X149100000Y-31000000D03*
D23*
X151600000Y-31000000D03*
X154400000Y-31000000D03*
D21*
X131000000Y-50850000D03*
D22*
X131000000Y-58650000D03*
D24*
X131000000Y-56150000D03*
X131000000Y-53350000D03*
D21*
X138900000Y-48000000D03*
D22*
X131100000Y-48000000D03*
D23*
X133600000Y-48000000D03*
X136400000Y-48000000D03*
D21*
X138900000Y-31000000D03*
D22*
X131100000Y-31000000D03*
D23*
X133600000Y-31000000D03*
X136400000Y-31000000D03*
D21*
X120900000Y-65000000D03*
D22*
X113100000Y-65000000D03*
D23*
X115600000Y-65000000D03*
X118400000Y-65000000D03*
D21*
X113000000Y-50850000D03*
D22*
X113000000Y-58650000D03*
D24*
X113000000Y-56150000D03*
X113000000Y-53350000D03*
D21*
X120900000Y-48000000D03*
D22*
X113100000Y-48000000D03*
D23*
X115600000Y-48000000D03*
X118400000Y-48000000D03*
D21*
X120900000Y-31000000D03*
D22*
X113100000Y-31000000D03*
D23*
X115600000Y-31000000D03*
X118400000Y-31000000D03*
D21*
X98900000Y-65000000D03*
D22*
X91100000Y-65000000D03*
D23*
X93600000Y-65000000D03*
X96400000Y-65000000D03*
D21*
X104000000Y-65850000D03*
D22*
X104000000Y-73650000D03*
D24*
X104000000Y-71150000D03*
X104000000Y-68350000D03*
D21*
X102900000Y-48000000D03*
D22*
X95100000Y-48000000D03*
D23*
X97600000Y-48000000D03*
X100400000Y-48000000D03*
D21*
X102900000Y-31000000D03*
D22*
X95100000Y-31000000D03*
D23*
X97600000Y-31000000D03*
X100400000Y-31000000D03*
D21*
X95000000Y-50850000D03*
D22*
X95000000Y-58650000D03*
D24*
X95000000Y-56150000D03*
X95000000Y-53350000D03*
D21*
X84900000Y-48000000D03*
D22*
X77100000Y-48000000D03*
D23*
X79600000Y-48000000D03*
X82400000Y-48000000D03*
D21*
X84900000Y-31000000D03*
D22*
X77100000Y-31000000D03*
D23*
X79600000Y-31000000D03*
X82400000Y-31000000D03*
D21*
X77000000Y-50850000D03*
D22*
X77000000Y-58650000D03*
D24*
X77000000Y-56150000D03*
X77000000Y-53350000D03*
D21*
X66900000Y-47750000D03*
D22*
X59100000Y-47750000D03*
D23*
X61600000Y-47750000D03*
X64400000Y-47750000D03*
D21*
X66900000Y-31000000D03*
D22*
X59100000Y-31000000D03*
D23*
X61600000Y-31000000D03*
X64400000Y-31000000D03*
D21*
X59000000Y-50850000D03*
D22*
X59000000Y-58650000D03*
D24*
X59000000Y-56150000D03*
X59000000Y-53350000D03*
D21*
X49900000Y-48000000D03*
D22*
X42100000Y-48000000D03*
D23*
X44600000Y-48000000D03*
X47400000Y-48000000D03*
D21*
X48900000Y-31000000D03*
D22*
X41100000Y-31000000D03*
D23*
X43600000Y-31000000D03*
X46400000Y-31000000D03*
D21*
X41000000Y-50850000D03*
D22*
X41000000Y-58650000D03*
D24*
X41000000Y-56150000D03*
X41000000Y-53350000D03*
D21*
X33150000Y-48000000D03*
D22*
X25350000Y-48000000D03*
D23*
X27850000Y-48000000D03*
X30650000Y-48000000D03*
D21*
X30900000Y-31000000D03*
D22*
X23100000Y-31000000D03*
D23*
X25600000Y-31000000D03*
X28400000Y-31000000D03*
M02*
