M48
; DRILL file {KiCad (5.1.4)-1} date 7/28/2021 1:43:44 PM
; FORMAT={-:-/ absolute / inch / decimal}
; #@! TF.CreationDate,2021-07-28T13:43:44-07:00
; #@! TF.GenerationSoftware,Kicad,Pcbnew,(5.1.4)-1
; #@! TF.FileFunction,Plated,1,2,PTH
FMAT,2
INCH
T1C0.0394
T2C0.0430
T3C0.0472
%
G90
G05
T1
X3.0354Y-1.8898
X3.3425Y-1.8898
X3.0315Y-2.002
X3.0315Y-2.3091
X5.8701Y-1.2205
X6.1772Y-1.2205
X1.6181Y-1.2205
X1.9252Y-1.2205
X4.4528Y-1.2205
X4.7598Y-1.2205
X3.7402Y-2.002
X3.7402Y-2.3091
X3.5866Y-2.5591
X3.8937Y-2.5591
X6.9331Y-1.8898
X7.2402Y-1.8898
X3.7441Y-1.8898
X4.0512Y-1.8898
X6.565Y-2.002
X6.565Y-2.3091
X5.8701Y-1.8898
X6.1772Y-1.8898
X3.0354Y-1.2205
X3.3425Y-1.2205
X2.3228Y-2.002
X2.3228Y-2.3091
X5.8661Y-2.002
X5.8661Y-2.3091
X2.3268Y-1.8799
X2.6339Y-1.8799
X4.4528Y-2.5591
X4.7598Y-2.5591
X0.998Y-1.8898
X1.3051Y-1.8898
X6.3976Y-1.8898
X6.7047Y-1.8898
X0.9094Y-1.2205
X1.2165Y-1.2205
X4.0945Y-2.5925
X4.0945Y-2.8996
X3.7441Y-1.2205
X4.0512Y-1.2205
X4.4488Y-2.002
X4.4488Y-2.3091
X1.6142Y-2.002
X1.6142Y-2.3091
X5.1575Y-2.002
X5.1575Y-2.3091
X1.6575Y-1.8898
X1.9646Y-1.8898
X5.1614Y-1.8898
X5.4685Y-1.8898
X2.3268Y-1.2205
X2.6339Y-1.2205
X4.4528Y-1.8898
X4.7598Y-1.8898
X7.2874Y-1.2205
X7.5945Y-1.2205
X6.5787Y-1.2205
X6.8858Y-1.2205
X5.1614Y-1.2205
X5.4685Y-1.2205
T2
X0.9559Y-2.6181
X0.9559Y-3.2181
X1.0559Y-2.6181
X1.0559Y-3.2181
X1.1559Y-2.6181
X1.1559Y-3.2181
X1.2559Y-2.6181
X1.2559Y-3.2181
X1.3559Y-2.6181
X1.3559Y-3.2181
X1.4559Y-2.6181
X1.4559Y-3.2181
X1.5559Y-2.6181
X1.5559Y-3.2181
X1.6559Y-2.6181
X1.6559Y-3.2181
X1.7559Y-2.6181
X1.7559Y-3.2181
X1.8559Y-2.6181
X1.8559Y-3.2181
X1.9559Y-2.6181
X1.9559Y-3.2181
X2.0559Y-2.6181
X2.0559Y-3.2181
T3
X2.8346Y-1.0354
X3.0315Y-1.1181
X4.9606Y-1.0354
X5.1575Y-1.1181
X5.6693Y-1.0354
X5.8661Y-1.1181
X1.4173Y-1.7047
X1.6142Y-1.7874
X7.0866Y-1.0354
X7.2835Y-1.1181
X3.8976Y-2.374
X4.0945Y-2.4567
X7.0866Y-1.7047
X7.2835Y-1.7874
X0.7087Y-1.0354
X0.9055Y-1.1181
X3.189Y-2.374
X3.3858Y-2.4567
X1.7717Y-2.374
X1.9685Y-2.4567
X1.063Y-2.374
X1.2598Y-2.4567
X2.8346Y-1.7047
X3.0315Y-1.7874
X6.378Y-1.0354
X6.5748Y-1.1181
X2.126Y-1.0354
X2.3228Y-1.1181
X6.7323Y-2.374
X6.9291Y-2.4567
X0.7087Y-1.7047
X0.9055Y-1.7874
X4.4488Y-2.6614
X4.6457Y-2.7441
X6.0236Y-2.374
X6.2205Y-2.4567
X5.315Y-2.374
X5.5118Y-2.4567
X3.5433Y-1.0354
X3.7402Y-1.1181
X3.5433Y-1.7047
X3.7402Y-1.7874
X1.4173Y-1.0354
X1.6142Y-1.1181
X4.6063Y-2.374
X4.8031Y-2.4567
X4.9606Y-1.7047
X5.1575Y-1.7874
X4.252Y-1.7047
X4.4488Y-1.7874
X6.378Y-1.7047
X6.5748Y-1.7874
X2.126Y-1.7047
X2.3228Y-1.7874
X5.6693Y-1.7047
X5.8661Y-1.7874
X3.7402Y-2.6614
X3.937Y-2.7441
X4.252Y-1.0354
X4.4488Y-1.1181
X2.4803Y-2.374
X2.6772Y-2.4567
T0
M30
